<svg width="50" height="50" viewBox="0 0 50 50" fill="none" xmlns="http://www.w3.org/2000/svg">
<g id="search_24px">
<path id="icon/action/search_24px" fill-rule="evenodd" clip-rule="evenodd" d="M31.1771 29.6979H32.8229L43.2188 40.1146L40.1146 43.2188L29.6979 32.8229V31.1771L29.1354 30.5938C26.7604 32.6354 23.6771 33.8646 20.3229 33.8646C12.8438 33.8646 6.78125 27.8021 6.78125 20.3229C6.78125 12.8438 12.8438 6.78125 20.3229 6.78125C27.8021 6.78125 33.8646 12.8438 33.8646 20.3229C33.8646 23.6771 32.6354 26.7604 30.5938 29.1354L31.1771 29.6979ZM10.9479 20.3229C10.9479 25.5104 15.1354 29.6979 20.3229 29.6979C25.5104 29.6979 29.6979 25.5104 29.6979 20.3229C29.6979 15.1354 25.5104 10.9479 20.3229 10.9479C15.1354 10.9479 10.9479 15.1354 10.9479 20.3229Z" fill="#C7CEDB" fill-opacity="0.54"/>
</g>
</svg>
